HIERARCHY
ROOT Hips
{
    OFFSET 0.000000 0.000000 0.000000
    CHANNELS 6 Xposition Yposition Zposition Zrotation Yrotation Xrotation
    JOINT LeftUpLeg
    {
        OFFSET 8.968670 -10.366788 4.050026
        CHANNELS 3 Zrotation Yrotation Xrotation
        JOINT LeftLeg
        {
            OFFSET 14.140802 -38.851593 0.000000
            CHANNELS 3 Zrotation Yrotation Xrotation
            JOINT LeftFoot
            {
                OFFSET 14.858545 -40.823521 0.000000
                CHANNELS 3 Zrotation Yrotation Xrotation
                JOINT LeftToeBase
                {
                    OFFSET 1.337215 -3.673940 9.750701
                    CHANNELS 3 Zrotation Yrotation Xrotation
                    End Site
                    {
                        OFFSET 0.000000 0.000000 0.000000
                    }
                }
            }
        }
    }
    JOINT RightUpLeg
    {
        OFFSET -8.547598 -10.366788 4.050026
        CHANNELS 3 Zrotation Yrotation Xrotation
        JOINT RightLeg
        {
            OFFSET -14.367877 -39.475525 0.000000
            CHANNELS 3 Zrotation Yrotation Xrotation
            JOINT RightFoot
            {
                OFFSET -15.015628 -41.255089 0.000000
                CHANNELS 3 Zrotation Yrotation Xrotation
                JOINT RightToeBase
                {
                    OFFSET -1.297140 -3.563761 11.512261
                    CHANNELS 3 Zrotation Yrotation Xrotation
                    End Site
                    {
                        OFFSET 0.000000 0.000000 0.000000
                    }
                }
            }
        }
    }
    JOINT Spine
    {
        OFFSET -0.149633 10.514107 -0.629463
        CHANNELS 3 Zrotation Yrotation Xrotation
        JOINT Spine1
        {
            OFFSET 0.057516 10.511228 0.230687
            CHANNELS 3 Zrotation Yrotation Xrotation
            JOINT Neck1
            {
                OFFSET -0.108711 10.188820 0.500489
                CHANNELS 3 Zrotation Yrotation Xrotation
                JOINT Head
                {
                    OFFSET 0.311345 9.959600 -2.171683
                    CHANNELS 3 Zrotation Yrotation Xrotation
                    End Site
                    {
                        OFFSET 0.000000 0.000000 0.000000
                    }
                }
            }
            JOINT LeftShoulder
            {
                OFFSET 0.000000 0.000000 0.000000
                CHANNELS 3 Zrotation Yrotation Xrotation
                JOINT LeftArm
                {
                    OFFSET 19.592615 8.544267 0.817930
                    CHANNELS 3 Zrotation Yrotation Xrotation
                    JOINT LeftForeArm
                    {
                        OFFSET 26.985596 -0.000000 0.000000
                        CHANNELS 3 Zrotation Yrotation Xrotation
                        JOINT LeftHand
                        {
                            OFFSET 20.241665 -0.000000 -0.000000
                            CHANNELS 3 Zrotation Yrotation Xrotation
                            End Site
                            {
                                OFFSET 0.000000 0.000000 0.000000
                            }
                        }
                    }
                }
            }
            JOINT RightShoulder
            {
                OFFSET 0.000000 0.000000 0.000000
                CHANNELS 3 Zrotation Yrotation Xrotation
                JOINT RightArm
                {
                    OFFSET -18.723886 9.099676 1.984345
                    CHANNELS 3 Zrotation Yrotation Xrotation
                    JOINT RightForeArm
                    {
                        OFFSET -25.338446 -0.000000 0.000000
                        CHANNELS 3 Zrotation Yrotation Xrotation
                        JOINT RightHand
                        {
                            OFFSET -20.913067 -0.000000 0.000000
                            CHANNELS 3 Zrotation Yrotation Xrotation
                            End Site
                            {
                                OFFSET 0.000000 0.000000 0.000000
                            }
                        }
                    }
                }
            }
        }
    }
}
MOTION
Frames: 15
Frame Time: 0.016667
-3.204326 99.954987 32.915321 -0.388100 -3.495200 4.030599 -14.171407 -8.069700 -2.488500 1.111700 6.698603 18.825600 1.543701 6.227502 -26.435907 8.278000 -16.319908 -53.557804 13.295707 4.209403 5.192500 0.000000 0.000000 0.000000 -0.790800 -5.357702 -19.578011 -0.139600 2.408101 -6.634805 -1.359645 2.193497 -1.521838 1.302501 0.680300 -4.234502 0.911612 -4.507314 12.025254 0.758400 -1.326400 9.348100 0.000000 0.000000 0.000000 -90.587593 10.373799 28.054396 19.023605 -29.448013 -5.042398 0.000000 0.000000 10.802599 0.000000 0.000000 0.000000 88.293816 -19.299614 28.045921 -24.951611 36.154507 -8.261308 0.000000 0.000000 19.898598 
-3.200939 99.955551 32.923786 -0.414100 -3.510000 4.030100 -14.146206 -8.023404 -2.504299 1.114701 6.707204 18.850803 1.538501 6.219002 -26.392599 8.295300 -16.332207 -53.619606 13.322805 4.226302 5.195003 0.000000 0.000000 0.000000 -0.790301 -5.365000 -19.577997 -0.142700 2.434399 -6.707800 -1.307178 2.167043 -1.526554 1.310800 0.672801 -4.236502 0.875295 -4.442049 12.044559 0.761200 -1.309001 9.331804 0.000000 0.000000 0.000000 -90.607498 10.436998 28.077297 19.105709 -29.549799 -5.082900 0.000000 0.000000 10.691505 0.000000 0.000000 0.000000 88.261299 -19.310501 28.087303 -24.989206 36.192902 -8.283502 0.000000 0.000000 19.855499 
-3.199246 99.960068 32.937332 -0.416000 -3.505902 4.064102 -14.145500 -8.064504 -2.525399 1.115901 6.710802 18.861210 1.543801 6.248403 -26.449209 8.307903 -16.341099 -53.664112 13.318404 4.227400 5.168899 0.000000 0.000000 0.000000 -0.790700 -5.380900 -19.593107 -0.142000 2.428401 -6.691202 -1.286259 2.133719 -1.574240 1.327801 0.663500 -4.189303 0.844857 -4.421305 11.989487 0.785400 -1.306400 9.356104 0.000000 0.000000 0.000000 -90.619698 10.410697 28.132799 19.123806 -29.572203 -5.091799 0.000000 0.000000 10.614104 0.000000 0.000000 0.000000 88.250412 -19.272404 28.045900 -24.990711 36.194405 -8.284408 0.000000 0.000000 19.910299 
-3.190779 99.957809 32.950314 -0.399300 -3.511500 4.094202 -14.167701 -8.077003 -2.547701 1.115600 6.709901 18.858900 1.546901 6.219899 -26.454605 8.277702 -16.319710 -53.556793 13.292409 4.237503 5.142603 0.000000 0.000000 0.000000 -0.791400 -5.373702 -19.594999 -0.142400 2.431601 -6.700002 -1.273566 2.157221 -1.617759 1.310200 0.669800 -4.205100 0.800558 -4.429259 12.014021 0.770500 -1.308800 9.371900 0.000000 0.000000 0.000000 -90.609596 10.429798 28.215313 19.126303 -29.575310 -5.093005 0.000000 0.000000 10.536804 0.000000 0.000000 0.000000 88.246300 -19.297300 28.012400 -24.989506 36.193321 -8.283708 0.000000 0.000000 19.875099 
-3.193037 99.957809 32.966118 -0.412400 -3.501001 4.107003 -14.156004 -8.117607 -2.540100 1.116301 6.711804 18.864408 1.549001 6.248802 -26.486300 8.276402 -16.318899 -53.552402 13.307009 4.227103 5.139403 0.000000 0.000000 0.000000 -0.792700 -5.368000 -19.604300 -0.136300 2.379199 -6.554900 -1.233526 2.122489 -1.641676 1.293900 0.658600 -4.156002 0.800273 -4.405555 11.976981 0.807300 -1.305500 9.400300 0.000000 0.000000 0.000000 -90.642403 10.312697 28.065596 19.031107 -29.457312 -5.046103 0.000000 0.000000 10.678500 0.000000 0.000000 0.000000 88.240112 -19.258802 28.065016 -25.000500 36.204502 -8.290200 0.000000 0.000000 19.855200 
-3.201504 99.960068 32.980228 -0.449100 -3.480602 4.149500 -14.088600 -8.041800 -2.618498 1.116500 6.712600 18.866600 1.546699 6.157897 -26.415689 8.276203 -16.318703 -53.551510 13.353395 4.217900 5.099802 0.000000 0.000000 0.000000 -0.785900 -5.403300 -19.560200 -0.144300 2.447999 -6.745597 -1.204113 2.088261 -1.719033 1.290200 0.648400 -4.118802 0.805149 -4.396628 11.989513 0.777900 -1.300100 9.359800 0.000000 0.000000 0.000000 -90.596718 10.331598 28.081902 19.023600 -29.447998 -5.042497 0.000000 0.000000 10.664400 0.000000 0.000000 0.000000 88.264618 -19.255804 28.060303 -25.005503 36.209602 -8.293106 0.000000 0.000000 19.922104 
-3.209970 99.961197 32.991516 -0.450500 -3.457402 4.209804 -14.076100 -8.116700 -2.657900 1.116100 6.711400 18.863100 1.548100 6.172701 -26.434704 8.266895 -16.312105 -53.518486 13.354398 4.207501 5.041299 0.000000 0.000000 0.000000 -0.794900 -5.360698 -19.620899 -0.137500 2.389800 -6.584303 -1.225024 2.074571 -1.813806 1.325400 0.645700 -4.082600 0.795883 -4.422511 11.984664 0.755400 -1.305700 9.342207 0.000000 0.000000 0.000000 -90.610703 10.324103 28.106897 19.021999 -29.445997 -5.041703 0.000000 0.000000 10.612800 0.000000 0.000000 0.000000 88.229927 -19.241516 28.087307 -25.004423 36.208508 -8.292506 0.000000 0.000000 19.884399 
-3.211664 99.961761 33.010712 -0.449300 -3.417201 4.217302 -14.071403 -8.114805 -2.656202 1.115101 6.708503 18.854612 1.543600 6.163902 -26.396814 8.274905 -16.317801 -53.547009 13.354804 4.162900 5.044500 0.000000 0.000000 0.000000 -0.795400 -5.344802 -19.615900 -0.137200 2.387602 -6.578202 -1.217506 2.048330 -1.855165 1.307600 0.637500 -4.074502 0.835806 -4.430555 12.028254 0.801200 -1.310300 9.325400 0.000000 0.000000 0.000000 -90.604233 10.376706 28.058210 19.036604 -29.464207 -5.048903 0.000000 0.000000 10.654300 0.000000 0.000000 0.000000 88.210121 -19.209810 28.162809 -24.937403 36.139904 -8.252998 0.000000 0.000000 19.822201 
-3.207713 99.962891 33.019741 -0.454800 -3.393202 4.227700 -14.073112 -8.167005 -2.639402 1.114400 6.706304 18.848200 1.548100 6.189103 -26.444803 8.276701 -16.318998 -53.553295 13.360200 4.140600 5.033802 0.000000 0.000000 0.000000 -0.795600 -5.340800 -19.614315 -0.126500 2.292302 -6.314203 -1.189813 2.049615 -1.864636 1.284300 0.637200 -4.089000 0.825723 -4.391132 12.050737 0.797300 -1.298900 9.319504 0.000000 0.000000 0.000000 -90.588104 10.442904 28.078606 19.090815 -29.531416 -5.075506 0.000000 0.000000 10.610000 0.000000 0.000000 0.000000 88.219803 -19.249304 28.158304 -24.956104 36.159122 -8.264001 0.000000 0.000000 19.813299 
-3.206583 99.960632 33.034416 -0.396100 -3.384801 4.217200 -14.135604 -8.135901 -2.627001 1.112600 6.701200 18.833008 1.549600 6.144602 -26.428898 8.274804 -16.317703 -53.546524 13.294703 4.120298 5.054700 0.000000 0.000000 0.000000 -0.802100 -5.281703 -19.639408 -0.120800 2.240199 -6.169898 -1.257286 2.070529 -1.862722 1.314600 0.644500 -4.086400 0.795584 -4.372775 12.037380 0.769600 -1.291800 9.274508 0.000000 0.000000 0.000000 -90.591103 10.484798 28.170189 19.136105 -29.587513 -5.097901 0.000000 0.000000 10.484500 0.000000 0.000000 0.000000 88.194603 -19.274097 28.177797 -24.957918 36.160931 -8.265010 0.000000 0.000000 19.806299 
-3.209406 99.959496 33.048527 -0.411900 -3.392000 4.227200 -14.134305 -8.215604 -2.577501 1.109400 6.691900 18.805700 1.547100 6.252702 -26.475401 8.287202 -16.326511 -53.590809 13.311104 4.128702 5.052901 0.000000 0.000000 0.000000 -0.801700 -5.321800 -19.662907 -0.121200 2.244200 -6.180902 -1.236660 2.082762 -1.885578 1.326000 0.647801 -4.035401 0.759224 -4.311613 12.002114 0.800200 -1.278200 9.306100 0.000000 0.000000 0.000000 -90.643494 10.465999 28.053902 19.147612 -29.601713 -5.103506 0.000000 0.000000 10.626204 0.000000 0.000000 0.000000 88.148033 -19.218105 28.257496 -24.931513 36.133907 -8.249502 0.000000 0.000000 19.745708 
-3.217308 99.957253 33.060383 -0.392400 -3.396101 4.218300 -14.156796 -8.221904 -2.552100 1.108400 6.689000 18.797207 1.550900 6.247501 -26.499802 8.285902 -16.325510 -53.586006 13.294204 4.126900 5.068204 0.000000 0.000000 0.000000 -0.808300 -5.258602 -19.685701 -0.122900 2.259702 -6.224002 -1.269933 2.065744 -1.871036 1.364500 0.644500 -4.049500 0.701691 -4.252576 11.996882 0.804101 -1.263601 9.330204 0.000000 0.000000 0.000000 -90.695244 10.457209 27.925705 19.096102 -29.537914 -5.078103 0.000000 0.000000 10.703804 0.000000 0.000000 0.000000 88.121124 -19.235607 28.302698 -24.941002 36.143600 -8.255096 0.000000 0.000000 19.715910 
-3.223517 99.955551 33.063202 -0.392100 -3.374401 4.204402 -14.154903 -8.223102 -2.548601 1.108600 6.689603 18.798811 1.540500 6.300900 -26.456306 8.302901 -16.337605 -53.646606 13.299308 4.101699 5.079600 0.000000 0.000000 0.000000 -0.801500 -5.300101 -19.645912 -0.125300 2.281502 -6.284402 -1.281064 2.051552 -1.844741 1.364700 0.640600 -4.058902 0.687793 -4.240934 11.966192 0.793400 -1.259700 9.312107 0.000000 0.000000 0.000000 -90.683105 10.473801 27.876413 19.084202 -29.523199 -5.072301 0.000000 0.000000 10.780600 0.000000 0.000000 0.000000 88.130096 -19.203699 28.324097 -24.911898 36.113800 -8.237899 0.000000 0.000000 19.688702 
-3.218437 99.952728 33.082394 -0.405000 -3.416400 4.228300 -14.156610 -8.251806 -2.549201 1.109200 6.691401 18.804394 1.546201 6.352801 -26.529108 8.307800 -16.341003 -53.663895 13.304702 4.148100 5.068200 0.000000 0.000000 0.000000 -0.802500 -5.297903 -19.654522 -0.121800 2.249799 -6.196603 -1.259223 2.099507 -1.912449 1.336300 0.652900 -4.019300 0.702270 -4.250520 11.956246 0.839300 -1.265700 9.308003 0.000000 0.000000 0.000000 -90.661011 10.529400 27.938200 19.126400 -29.575399 -5.093100 0.000000 0.000000 10.725707 0.000000 0.000000 0.000000 88.137909 -19.203512 28.326309 -24.924910 36.127110 -8.245606 0.000000 0.000000 19.640806 
-3.217873 99.954414 33.095940 -0.396700 -3.407201 4.255100 -14.163001 -8.260106 -2.567400 1.109601 6.692504 18.807512 1.552500 6.308003 -26.547112 8.308701 -16.341700 -53.666996 13.292600 4.142400 5.045902 0.000000 0.000000 0.000000 -0.803700 -5.275302 -19.651299 -0.118700 2.221000 -6.116900 -1.292233 2.125509 -1.985929 1.300000 0.659400 -4.016499 0.776045 -4.294513 12.004164 0.842000 -1.275700 9.258904 0.000000 0.000000 0.000000 -90.611008 10.550003 27.984905 19.100702 -29.543608 -5.080405 0.000000 0.000000 10.645400 0.000000 0.000000 0.000000 88.215637 -19.256304 28.261103 -24.952497 36.155396 -8.261898 0.000000 0.000000 19.697100 
